<svg width="33" height="33" viewBox="0 0 33 33" fill="none" xmlns="http://www.w3.org/2000/svg">
<path fill-rule="evenodd" clip-rule="evenodd" d="M0.568878 28.5732C0.655016 28.5026 0.747876 28.4389 0.826296 28.3606C2.82174 26.3677 4.81761 24.3753 6.80608 22.3755C6.96649 22.2142 7.12416 22.1491 7.34897 22.1539C7.9989 22.1676 8.64925 22.1587 9.35288 22.1587C9.27023 22.0487 9.22226 21.9756 9.16542 21.9104C4.37372 16.4182 7.01761 7.85738 14.0755 6.0133C19.5143 4.59227 25.0789 8.1543 26.0978 13.7031C26.3963 15.3279 26.2902 16.9223 25.7695 18.4864C25.6913 18.7214 25.7339 18.8593 25.9068 19.0237C26.3715 19.4654 26.8167 19.9279 27.2375 20.35C28.3589 19.2282 29.4608 18.1261 30.5728 17.0138C29.6754 17.0138 28.7609 17.0138 27.8291 17.0138C27.8291 16.662 27.8291 16.3465 27.8291 16.0027C29.37 16.0027 30.9005 16.0027 32.431 16.0027C32.431 21.4791 32.431 26.9553 32.431 32.4317C21.8103 32.4317 11.1896 32.4317 0.568878 32.4317C0.568878 31.1454 0.568878 29.8593 0.568878 28.5732ZM17.1306 22.1586C17.421 22.1586 17.7122 22.1457 18.0015 22.1628C18.2362 22.1766 18.4032 22.1038 18.5719 21.9331C19.9064 20.5837 21.2544 19.2476 22.5894 17.8986C22.7213 17.7655 22.8332 17.5857 22.8878 17.407C24.3119 12.7409 20.3497 8.14202 15.5291 8.85876C12.7899 9.26605 10.5361 11.3695 9.97128 14.0456C9.38765 16.8109 10.5527 19.598 12.9177 21.1067C14.2057 21.9285 15.6218 22.2268 17.1306 22.1586ZM31.3782 31.3848C31.3782 26.8528 31.3782 22.3452 31.3782 17.7577C30.7378 18.4017 30.1537 18.9982 29.5575 19.5824C29.4051 19.7316 29.3408 19.8823 29.3411 20.0972C29.3471 23.7447 29.3454 27.3923 29.3461 31.0397C29.3461 31.15 29.3551 31.2603 29.3606 31.3848C30.0418 31.3848 30.692 31.3848 31.3782 31.3848ZM25.2319 31.382C25.2319 31.2322 25.2319 31.1005 25.2319 30.9688C25.2319 27.4634 25.2227 23.9577 25.2429 20.4523C25.2456 19.9795 25.1417 19.6306 24.7751 19.3201C24.3932 18.9968 24.0627 18.6129 23.7291 18.275C23.273 18.5455 23.1627 18.8962 23.165 19.3687C23.1843 23.2371 23.1759 27.1057 23.1759 30.9743C23.1759 31.1057 23.1759 31.2371 23.1759 31.382C23.8774 31.382 24.5359 31.382 25.2319 31.382ZM22.1391 19.8001C21.4846 20.4581 20.8789 21.0533 20.2935 21.6675C20.1875 21.7789 20.1102 21.9681 20.1097 22.1218C20.099 25.1069 20.1017 28.092 20.1017 31.0771C20.1017 31.177 20.1017 31.2767 20.1017 31.3819C20.8039 31.3819 21.4627 31.3819 22.1391 31.3819C22.1391 27.5352 22.1391 23.7073 22.1391 19.8001ZM28.3051 20.8342C27.9618 21.2185 27.6615 21.5548 27.2849 21.9765C26.905 21.5774 26.5915 21.2482 26.29 20.9314C26.29 24.4085 26.29 27.8951 26.29 31.3814C26.9723 31.3814 27.6312 31.3814 28.3051 31.3814C28.3051 27.878 28.3051 24.3941 28.3051 20.8342ZM19.0384 31.3818C19.0384 28.5663 19.0384 25.7699 19.0384 22.9909C18.3962 23.3796 17.6885 23.0439 17.0315 23.2163C17.0315 25.9341 17.0315 28.6528 17.0315 31.3818C17.7129 31.3818 18.3712 31.3818 19.0384 31.3818ZM12.8862 23.1933C12.1929 23.1933 11.5352 23.1933 10.8612 23.1933C10.8612 25.9294 10.8612 28.6469 10.8612 31.3761C11.5447 31.3761 12.2096 31.3761 12.8862 31.3761C12.8862 28.6408 12.8862 25.9302 12.8862 23.1933ZM7.79659 23.1904C7.79659 25.9461 7.79659 28.6648 7.79659 31.3733C8.4827 31.3733 9.13994 31.3733 9.7937 31.3733C9.7937 28.6282 9.7937 25.9105 9.7937 23.1904C9.1133 23.1904 8.46337 23.1904 7.79659 23.1904ZM13.9534 23.1936C13.9534 25.9385 13.9534 28.6511 13.9534 31.3734C14.6361 31.3734 15.3008 31.3734 15.9725 31.3734C15.9725 28.6347 15.9725 25.9235 15.9725 23.1936C15.2957 23.1936 14.6378 23.1936 13.9534 23.1936ZM6.71878 23.9201C6.06404 24.577 5.45734 25.1724 4.87063 25.7866C4.76441 25.8979 4.68765 26.087 4.68633 26.241C4.67313 27.8477 4.67819 29.4547 4.67819 31.0616C4.67819 31.1625 4.67819 31.2636 4.67819 31.3777C5.37709 31.3777 6.04263 31.3777 6.7187 31.3777C6.71878 28.9034 6.71878 26.4521 6.71878 23.9201ZM3.63665 27.0547C3.57541 27.0887 3.5545 27.0951 3.54081 27.1087C3.10705 27.54 2.70432 28.009 2.2328 28.3939C1.7178 28.8142 1.51615 29.298 1.5876 29.9535C1.63863 30.4208 1.59756 30.898 1.59756 31.3806C2.30292 31.3806 2.96099 31.3806 3.63674 31.3806C3.63665 29.9361 3.63665 28.5114 3.63665 27.0547ZM15.9912 6.7663C13.9574 6.90123 12.2272 7.63274 10.7228 8.93635C10.9709 9.18771 11.2014 9.42114 11.3725 9.59442C12.1171 9.17178 12.8029 8.69179 13.558 8.37927C14.3206 8.06376 15.152 7.91431 15.9912 7.68162C15.9912 7.53075 15.9912 7.31466 15.9912 7.0984C15.9912 7.00679 15.9912 6.91534 15.9912 6.7663ZM22.2799 8.93519C20.7655 7.63565 19.0384 6.89376 17.0257 6.7707C17.0257 7.12703 17.0257 7.4432 17.0257 7.68519C17.8503 7.91373 18.6732 8.06011 19.4266 8.37371C20.1899 8.6913 20.8843 9.17427 21.6528 9.60985C21.79 9.46811 21.9845 9.26812 22.1772 9.06655C22.2121 9.03004 22.2398 8.98697 22.2799 8.93519ZM9.9629 9.6979C8.65291 11.2058 7.93185 12.9393 7.7926 14.9273C8.15749 14.9273 8.48246 14.9273 8.81771 14.9273C8.95597 13.2105 9.58399 11.7176 10.6898 10.4183C10.4452 10.1759 10.2138 9.9466 9.9629 9.6979ZM25.2112 14.9367C25.0576 12.9233 24.341 11.1911 23.0758 9.74346C22.8104 9.98195 22.5666 10.2009 22.3913 10.3585C22.8098 11.1035 23.2853 11.7928 23.5975 12.5496C23.9088 13.3038 24.0563 14.1256 24.2808 14.9367C24.5416 14.9367 24.8597 14.9367 25.2112 14.9367ZM9.93303 21.2143C10.1938 20.9652 10.4303 20.7391 10.6026 20.5744C10.1914 19.8437 9.71685 19.1562 9.40466 18.4013C9.09314 17.6482 8.94443 16.8276 8.71166 15.9913C8.62253 15.9913 8.45856 15.9913 8.2945 15.9913C8.13276 15.9913 7.97111 15.9913 7.79095 15.9913C7.93899 18.0092 8.65133 19.7401 9.93303 21.2143ZM24.7973 17.977C24.8376 17.9584 24.8781 17.9399 24.9183 17.9213C25.0252 17.2913 25.1322 16.6613 25.2419 16.0137C24.851 16.0137 24.5274 16.0137 24.2027 16.0137C24.1473 16.3597 24.0926 16.6839 24.046 17.0091C24.0381 17.0643 24.0463 17.1413 24.0797 17.1799C24.3142 17.4497 24.5571 17.7121 24.7973 17.977ZM11.446 21.3045C11.2068 21.5342 10.9704 21.7611 10.7342 21.9878C10.9165 22.1727 12.0946 22.2444 12.5571 22.1085C12.1911 21.8437 11.824 21.5781 11.446 21.3045Z" fill="white"/>
<path fill-rule="evenodd" clip-rule="evenodd" d="M16.8112 0.569397C16.9949 0.657942 17.1918 0.726819 17.3598 0.838765C17.9577 1.23701 18.1891 1.97383 17.9426 2.64103C17.6953 3.31079 17.038 3.71651 16.3298 3.63642C15.6093 3.55502 15.0693 3.01777 14.967 2.28095C14.8751 1.61791 15.2848 0.943159 15.9393 0.678438C16.0234 0.644415 16.1058 0.605911 16.1889 0.569481C16.3963 0.569398 16.6037 0.569397 16.8112 0.569397ZM16.5003 1.60596C16.2104 1.60554 15.9908 1.82852 15.995 2.11913C15.9989 2.39473 16.2109 2.61273 16.4835 2.62161C16.7679 2.63073 17 2.40759 17.0046 2.12046C17.0095 1.83002 16.7902 1.60637 16.5003 1.60596Z" fill="white"/>
<path fill-rule="evenodd" clip-rule="evenodd" d="M4.67688 20.6292C4.66958 21.4727 3.96239 22.1663 3.12067 22.1554C2.27514 22.1445 1.5916 21.4418 1.60164 20.5936C1.61177 19.7445 2.31539 19.0534 3.15627 19.0669C4.00429 19.0804 4.68427 19.7791 4.67688 20.6292ZM3.64514 20.6255C3.6531 20.3394 3.42946 20.1074 3.14333 20.1049C2.85637 20.1025 2.62526 20.329 2.626 20.6123C2.62675 20.8851 2.8396 21.1043 3.1147 21.1155C3.40432 21.1271 3.63717 20.9122 3.64514 20.6255Z" fill="white"/>
<path fill-rule="evenodd" clip-rule="evenodd" d="M28.8244 7.24249C27.9716 7.23884 27.2842 6.54658 27.2915 5.69873C27.2989 4.84706 27.9881 4.16891 28.8427 4.17256C29.6935 4.17613 30.3796 4.86756 30.3751 5.71682C30.3708 6.56418 29.6776 7.24606 28.8244 7.24249ZM28.8239 5.19543C28.5442 5.20149 28.3147 5.4448 28.324 5.72529C28.3333 6.00403 28.5833 6.23689 28.8575 6.22203C29.1278 6.20734 29.3394 5.98129 29.3392 5.70719C29.3389 5.42106 29.1056 5.18929 28.8239 5.19543Z" fill="white"/>
<path fill-rule="evenodd" clip-rule="evenodd" d="M6.73155 5.19271C6.73271 6.04347 6.04643 6.73133 5.19584 6.73199C4.3435 6.73258 3.65904 6.04928 3.65772 5.19628C3.65639 4.33997 4.33421 3.6604 5.19185 3.65833C6.04352 3.65642 6.73039 4.34096 6.73155 5.19271ZM5.1965 4.68128C4.9234 4.67954 4.68299 4.91687 4.68075 5.19031C4.67851 5.46673 4.9117 5.70232 5.18961 5.70448C5.46885 5.70655 5.70212 5.47661 5.70412 5.19736C5.70594 4.92028 5.47259 4.68302 5.1965 4.68128Z" fill="white"/>
<path fill-rule="evenodd" clip-rule="evenodd" d="M24.2123 5.16785C24.2123 5.50551 24.2123 5.84317 24.2123 6.20366C23.8681 6.20366 23.5453 6.20366 23.161 6.20366C23.161 5.85927 23.161 5.51414 23.161 5.16909L23.1541 5.17739C23.5096 5.17756 23.8651 5.17764 24.2208 5.17789L24.2123 5.16785Z" fill="white"/>
<path fill-rule="evenodd" clip-rule="evenodd" d="M3.12359 11.9012C3.12359 11.564 3.12359 11.2267 3.12359 10.8666C3.48075 10.8666 3.80298 10.8666 4.175 10.8666C4.175 11.2114 4.175 11.5565 4.175 11.9015L4.18289 11.8922C3.8273 11.8922 3.47171 11.8923 3.11612 11.8924L3.12359 11.9012Z" fill="white"/>
<path fill-rule="evenodd" clip-rule="evenodd" d="M4.17445 12.8859C4.17445 13.2234 4.17445 13.5611 4.17445 13.9172C3.82184 13.9172 3.50609 13.9172 3.12344 13.9172C3.12344 13.5761 3.12344 13.2311 3.12344 12.8861L3.11548 12.8946C3.47123 12.8946 3.82699 12.8946 4.18274 12.8947L4.17445 12.8859Z" fill="white"/>
<path fill-rule="evenodd" clip-rule="evenodd" d="M9.84766 4.17538C9.50958 4.17538 9.17159 4.17538 8.81085 4.17538C8.81085 3.82576 8.81085 3.50279 8.81085 3.1238C9.1559 3.1238 9.50153 3.1238 9.84716 3.1238L9.83845 3.11658C9.83837 3.47208 9.83837 3.82767 9.8382 4.18326L9.84766 4.17538Z" fill="white"/>
<path fill-rule="evenodd" clip-rule="evenodd" d="M23.1614 4.1836C23.1614 3.84651 23.1614 3.50943 23.1614 3.15326C23.5269 3.15326 23.8418 3.15326 24.2124 3.15326C24.2124 3.49433 24.2124 3.83921 24.2124 4.18418L24.221 4.17505C23.8652 4.17513 23.5095 4.1753 23.1537 4.17538L23.1614 4.1836Z" fill="white"/>
<path fill-rule="evenodd" clip-rule="evenodd" d="M10.8321 3.1242C11.1686 3.1242 11.5051 3.1242 11.8605 3.1242C11.8605 3.49232 11.8605 3.8148 11.8605 4.17503C11.5056 4.17503 11.1688 4.17503 10.8321 4.17503L10.8407 4.1835C10.8407 3.82774 10.8407 3.4719 10.8406 3.11615L10.8321 3.1242Z" fill="white"/>
<path fill-rule="evenodd" clip-rule="evenodd" d="M29.2828 10.8665C29.6313 10.8665 29.9799 10.8665 30.3528 10.8665C30.3528 11.1846 30.3528 11.5084 30.3528 11.8567C30.0368 11.8567 29.7135 11.8567 29.3785 11.8567C29.3486 11.5227 29.319 11.1919 29.2902 10.8604C29.2908 10.8596 29.2828 10.8665 29.2828 10.8665Z" fill="white"/>
<path fill-rule="evenodd" clip-rule="evenodd" d="M28.3078 10.8217C28.3048 11.189 28.3017 11.5561 28.2987 11.9233L28.307 11.9155C27.9809 11.8967 27.655 11.8779 27.3096 11.8579C27.3096 11.5196 27.3096 11.1951 27.3096 10.8311C27.6598 10.8311 27.989 10.8311 28.318 10.8311L28.3078 10.8217Z" fill="white"/>
<path fill-rule="evenodd" clip-rule="evenodd" d="M28.318 10.8312C28.318 10.5058 28.318 10.1802 28.318 9.83997C28.6696 9.83997 28.9832 9.83997 29.3665 9.83997C29.3383 10.191 29.3111 10.5282 29.2833 10.8661C29.2826 10.8667 29.2907 10.8598 29.2899 10.8606C28.9623 10.8485 28.6353 10.8354 28.3082 10.8223C28.3078 10.8218 28.318 10.8312 28.318 10.8312Z" fill="white"/>
<path fill-rule="evenodd" clip-rule="evenodd" d="M24.2123 4.18416C24.5386 4.18416 24.8649 4.18416 25.2113 4.18416C25.2113 4.51236 25.2113 4.82563 25.2113 5.16785C24.8791 5.16785 24.5457 5.16785 24.2123 5.16785L24.2209 5.17781C24.2209 4.84355 24.2209 4.50929 24.221 4.17511L24.2123 4.18416Z" fill="white"/>
<path fill-rule="evenodd" clip-rule="evenodd" d="M23.1611 5.16901C22.8429 5.16901 22.5248 5.16901 22.1817 5.16901C22.1817 4.85317 22.1817 4.53094 22.1817 4.18357C22.5099 4.18357 22.8356 4.18357 23.1614 4.18357L23.1537 4.17535C23.1539 4.50937 23.1539 4.8433 23.1541 5.17723L23.1611 5.16901Z" fill="white"/>
<path fill-rule="evenodd" clip-rule="evenodd" d="M10.8321 4.17487C10.8321 4.4951 10.8321 4.81526 10.8321 5.16238C10.5066 5.16238 10.1842 5.16238 9.84778 5.16238C9.84778 4.82936 9.84778 4.50224 9.84778 4.1752L9.83832 4.18308C10.1725 4.18308 10.5067 4.18325 10.8409 4.18333L10.8321 4.17487Z" fill="white"/>
<path fill-rule="evenodd" clip-rule="evenodd" d="M9.84737 3.12366C9.84737 2.80508 9.84737 2.48634 9.84737 2.14178C10.161 2.14178 10.4836 2.14178 10.8323 2.14178C10.8323 2.47074 10.8323 2.79745 10.8323 3.12407L10.8408 3.11602C10.5068 3.11611 10.1727 3.11627 9.83865 3.11644L9.84737 3.12366Z" fill="white"/>
<path fill-rule="evenodd" clip-rule="evenodd" d="M3.12329 12.8862C2.8043 12.8862 2.48531 12.8862 2.14084 12.8862C2.14084 12.5626 2.14084 12.2406 2.14084 11.9012C2.47128 11.9012 2.79716 11.9012 3.12304 11.9012L3.11558 11.8925C3.11549 12.2265 3.11541 12.5606 3.11533 12.8947L3.12329 12.8862Z" fill="white"/>
<path fill-rule="evenodd" clip-rule="evenodd" d="M4.17463 11.9016C4.49437 11.9016 4.81411 11.9016 5.1614 11.9016C5.1614 12.2171 5.1614 12.5398 5.1614 12.886C4.83004 12.886 4.50225 12.886 4.17438 12.886L4.18276 12.8947C4.18268 12.5606 4.18268 12.2264 4.18259 11.8922L4.17463 11.9016Z" fill="white"/>
<path fill-rule="evenodd" clip-rule="evenodd" d="M28.2988 11.9234C28.6332 11.904 28.9678 11.8845 29.3246 11.8637C29.3246 12.2263 29.3246 12.5408 29.3246 12.8771C29.0058 12.8771 28.6898 12.8771 28.3082 12.8771C28.3082 12.5637 28.3082 12.239 28.3076 11.915C28.3071 11.9157 28.2988 11.9234 28.2988 11.9234Z" fill="white"/>
<path fill-rule="evenodd" clip-rule="evenodd" d="M15.9827 10.8564C16.3533 10.8564 16.6608 10.8564 17.0054 10.8564C17.0054 11.1949 17.0054 11.5208 17.0054 11.8425C19.0156 11.9973 19.7071 14.217 18.381 15.4788C19.0234 16.1254 19.2537 16.8865 18.9222 17.7515C18.6011 18.5894 17.9431 19.0038 17.0243 19.0788C17.0243 19.4042 17.0243 19.7302 17.0243 20.079C16.6732 20.079 16.3576 20.079 16.0024 20.079C16.0024 19.7573 16.0024 19.4324 16.0024 19.0858C15.6391 19.0858 15.3149 19.0858 14.9629 19.0858C14.9629 19.4154 14.9629 19.7331 14.9629 20.0763C14.6221 20.0763 14.3072 20.0763 13.9637 20.0763C13.9637 17.0148 13.9637 13.9454 13.9637 10.859C14.2859 10.859 14.6014 10.859 14.944 10.859C14.944 11.1901 14.944 11.5079 14.944 11.8525C15.2944 11.8525 15.6187 11.8525 15.9827 11.8525C15.9827 11.5276 15.9827 11.2026 15.9827 10.8564ZM14.9691 14.9517C15.6651 14.9517 16.346 14.9585 17.0266 14.9495C17.5738 14.9423 17.9906 14.545 18.0408 14.0062C18.0874 13.5057 17.7311 12.9783 17.2065 12.9384C16.4692 12.8824 15.7245 12.9242 14.9691 12.9242C14.9691 13.5985 14.9691 14.2567 14.9691 14.9517ZM14.969 18.0484C15.604 18.0484 16.2044 18.0527 16.8046 18.0458C16.9792 18.0438 17.1598 18.0331 17.3262 17.986C17.7628 17.8624 18.0677 17.415 18.043 16.9698C18.0174 16.5102 17.685 16.0515 17.2425 16.0244C16.4925 15.9785 15.7376 16.0118 14.969 16.0118C14.969 16.6889 14.969 17.3474 14.969 18.0484Z" fill="white"/>
</svg>
