<svg width="39" height="38" viewBox="0 0 39 38" fill="none" xmlns="http://www.w3.org/2000/svg">
<path fill-rule="evenodd" clip-rule="evenodd" d="M37.9104 20.6004C37.8456 21.0373 37.7869 21.4331 37.7229 21.8652C37.3197 21.7869 36.943 21.7139 36.5464 21.6369C36.5464 22.6066 36.5464 23.5564 36.5464 24.5503C36.9481 24.5503 37.3345 24.545 37.7206 24.5517C38.2225 24.5601 38.4613 24.7949 38.4646 25.2985C38.471 26.2809 38.4686 27.2634 38.4659 28.2457C38.4642 28.8509 38.2439 29.0714 37.6368 29.0718C35.2818 29.0736 32.9267 29.0726 30.5716 29.0726C30.4243 29.0726 30.2771 29.0726 30.099 29.0726C30.099 30.7889 30.099 32.4889 30.099 34.241C30.6533 34.241 31.2133 34.24 31.7732 34.2412C32.4396 34.2428 32.6496 34.4474 32.6518 35.0988C32.6537 35.6236 32.6552 36.1484 32.6513 36.6733C32.647 37.2312 32.42 37.4686 31.8743 37.4698C30.2324 37.4736 28.5906 37.474 26.9489 37.4693C26.4412 37.4679 26.2002 37.2308 26.1936 36.7339C26.186 36.1419 26.1848 35.5497 26.1942 34.9576C26.2015 34.4854 26.4462 34.249 26.9282 34.243C27.5303 34.2355 28.1326 34.2411 28.755 34.2411C28.755 32.5137 28.755 30.8233 28.755 29.1026C22.751 29.1026 16.7445 29.1026 10.7122 29.1026C10.7122 30.7992 10.7122 32.499 10.7122 34.2409C11.2971 34.2409 11.8718 34.2388 12.4464 34.2416C13.0502 34.2445 13.2672 34.4636 13.2699 35.0727C13.2725 35.6245 13.2762 36.1763 13.2685 36.7279C13.2617 37.228 13.0227 37.4677 12.5185 37.4692C10.8632 37.4741 9.20788 37.4744 7.55269 37.469C7.05237 37.4673 6.81728 37.2242 6.81168 36.7195C6.80511 36.141 6.80468 35.562 6.81179 34.9835C6.81803 34.4825 7.05538 34.2482 7.56098 34.2426C8.15198 34.2361 8.74309 34.2411 9.36414 34.2411C9.36414 32.5226 9.36414 30.8227 9.36414 29.0725C9.22339 29.0725 9.08059 29.0725 8.93769 29.0725C6.58262 29.0725 4.22756 29.073 1.8725 29.072C1.20666 29.0718 0.997095 28.8661 0.995803 28.2128C0.99408 27.2843 0.994403 26.3557 0.995803 25.4271C0.996772 24.7482 1.19944 24.5517 1.89458 24.5501C2.22755 24.5494 2.56075 24.5499 2.91311 24.5499C2.91311 23.5625 2.91311 22.6127 2.91311 21.6387C2.52381 21.7189 2.14765 21.7963 1.73864 21.8806C1.67532 21.4445 1.6162 21.038 1.55536 20.6196C1.99936 20.508 2.42269 20.4318 2.82588 20.2956C6.27636 19.1302 8.29198 16.6702 9.13885 13.1972C9.30297 12.5242 9.32763 11.8148 9.38718 11.1197C9.42864 10.636 9.63573 10.3501 10.0236 10.3399C10.4255 10.3293 10.6687 10.6248 10.6886 11.1282C10.8329 14.7603 12.3205 17.6617 15.4936 19.5228C19.4364 21.8353 24.3541 20.5986 27.0131 16.7174C28.1461 15.0638 28.7124 13.2258 28.7724 11.227C28.7745 11.1597 28.7725 11.0923 28.7765 11.0252C28.8017 10.6087 29.0531 10.3412 29.4196 10.34C29.786 10.3387 30.0237 10.6087 30.0709 11.0211C30.1666 11.8606 30.1824 12.7257 30.4074 13.531C31.4102 17.122 33.6298 19.5412 37.3239 20.4694C37.4148 20.4922 37.5091 20.5016 37.6007 20.5216C37.6914 20.5414 37.7807 20.5669 37.9104 20.6004ZM28.758 25.8709C22.7178 25.8709 16.7127 25.8709 10.7056 25.8709C10.7056 26.5133 10.7056 27.1269 10.7056 27.7588C16.73 27.7588 22.7351 27.7588 28.758 27.7588C28.758 27.1238 28.758 26.5102 28.758 25.8709ZM9.36489 27.7632C9.36489 27.1074 9.36489 26.4845 9.36489 25.8741C6.99109 25.8741 4.64658 25.8741 2.30972 25.8741C2.30972 26.5197 2.30972 27.133 2.30972 27.7632C4.66661 27.7632 7.00154 27.7632 9.36489 27.7632ZM30.0869 27.7527C32.4626 27.7527 34.8069 27.7527 37.1426 27.7527C37.1426 27.1015 37.1426 26.4784 37.1426 25.8627C34.7755 25.8627 32.4406 25.8627 30.0869 25.8627C30.0869 26.4962 30.0869 27.1095 30.0869 27.7527ZM32.0062 24.5299C32.0062 23.0639 31.9654 21.6248 32.0219 20.1896C32.0542 19.3672 31.9016 18.707 31.2895 18.1018C30.8165 17.634 30.4961 17.0121 30.0871 16.4293C30.0871 19.1449 30.0871 21.8273 30.0871 24.5298C30.72 24.5299 31.3338 24.5299 32.0062 24.5299ZM9.38352 16.4917C8.81212 17.2365 8.2349 17.9732 7.67944 18.7259C7.56368 18.8829 7.46762 19.0985 7.46557 19.2882C7.44899 20.9157 7.45566 22.5436 7.45695 24.1712C7.45706 24.2878 7.46999 24.4044 7.47688 24.5215C8.12732 24.5215 8.75041 24.5215 9.38352 24.5215C9.38352 21.8189 9.38352 19.1453 9.38352 16.4917ZM12.6244 24.5308C12.6244 23.0518 12.5846 21.6007 12.6402 20.1534C12.6707 19.3589 12.517 18.7271 11.933 18.1406C11.4535 17.6592 11.1202 17.0326 10.7063 16.4481C10.7063 19.152 10.7063 21.8317 10.7063 24.5308C11.3394 24.5308 11.9528 24.5308 12.6244 24.5308ZM28.7625 16.5169C28.1651 17.2798 27.5568 18.0452 26.966 18.824C26.8798 18.9376 26.8438 19.1151 26.8429 19.2632C26.8346 20.9035 26.8371 22.5438 26.8387 24.1839C26.8387 24.2994 26.8533 24.415 26.8602 24.5173C27.5179 24.5173 28.1411 24.5173 28.7749 24.5173C28.7749 21.8495 28.7751 19.2147 28.774 16.5797C28.7741 16.5434 28.7604 16.5071 28.7625 16.5169ZM33.3129 24.5202C33.9729 24.5202 34.5956 24.5202 35.2362 24.5202C35.2362 23.4436 35.2391 22.3967 35.231 21.3499C35.2303 21.2592 35.1828 21.1245 35.1142 21.0856C34.5248 20.751 33.9255 20.4337 33.3128 20.1025C33.3129 21.5747 33.3129 23.0345 33.3129 24.5202ZM15.8545 24.5305C15.8545 23.4448 15.8578 22.3865 15.8482 21.3283C15.8474 21.2426 15.78 21.12 15.707 21.0786C15.1288 20.7487 14.5416 20.4346 13.9382 20.1052C13.9382 21.5772 13.9382 23.0441 13.9382 24.5307C14.5689 24.5305 15.1817 24.5305 15.8545 24.5305ZM6.15068 20.0696C5.73339 20.3232 5.39126 20.6055 4.99851 20.7532C4.34688 20.9984 4.14647 21.3986 4.20861 22.0837C4.28173 22.8905 4.22584 23.7092 4.22584 24.5216C4.89868 24.5216 5.52081 24.5216 6.15079 24.5216C6.15068 23.0343 6.15068 21.5755 6.15068 20.0696ZM25.5127 24.5311C25.5127 23.0343 25.5127 21.5687 25.5127 20.1133C24.9227 20.4511 24.3511 20.7729 23.7867 21.107C23.709 21.153 23.6167 21.2582 23.6159 21.3369C23.6047 22.3955 23.6083 23.4541 23.6083 24.5312C24.2614 24.5311 24.8748 24.5311 25.5127 24.5311ZM19.0641 24.5412C19.0641 23.667 19.0641 22.8261 19.0641 21.9961C18.4233 21.8784 17.8049 21.7649 17.1773 21.6495C17.1773 22.6154 17.1773 23.574 17.1773 24.5412C17.8117 24.5412 18.4159 24.5412 19.0641 24.5412ZM20.3944 24.5247C21.0432 24.5247 21.6654 24.5247 22.289 24.5247C22.289 23.5565 22.289 22.6139 22.289 21.6748C21.6462 21.7846 21.0286 21.8898 20.3944 21.9979C20.3944 22.8278 20.3944 23.6571 20.3944 24.5247ZM8.11989 36.1521C9.42089 36.1521 10.6896 36.1521 11.9612 36.1521C11.9612 35.9414 11.9612 35.758 11.9612 35.5539C10.6753 35.5539 9.40646 35.5539 8.11989 35.5539C8.11989 35.7566 8.11989 35.9403 8.11989 36.1521ZM27.4985 36.147C28.8119 36.147 30.0799 36.147 31.3377 36.147C31.3377 35.931 31.3377 35.7478 31.3377 35.5577C30.0467 35.5577 28.7779 35.5577 27.4985 35.5577C27.4985 35.766 27.4985 35.9495 27.4985 36.147Z" fill="white"/>
<path fill-rule="evenodd" clip-rule="evenodd" d="M19.6701 16.7947C15.0643 16.7878 11.3164 12.9851 11.3331 8.33651C11.3496 3.75389 15.1253 -0.00415267 19.7085 0.000370289C24.3578 0.00489325 28.1409 3.76907 28.1273 8.37667C28.1133 13.0698 24.3641 16.8018 19.6701 16.7947ZM19.7397 15.5025C23.6555 15.5049 26.8321 12.3166 26.8372 8.37872C26.8424 4.5033 23.6561 1.30201 19.7842 1.29264C15.8405 1.28317 12.63 4.45075 12.6259 8.35535C12.6217 12.3154 15.7915 15.5001 19.7397 15.5025Z" fill="white"/>
<path fill-rule="evenodd" clip-rule="evenodd" d="M23.1262 6.44269C22.6879 6.44269 22.2888 6.44269 21.8944 6.44269C21.6506 5.51075 21.2348 5.15656 20.4046 5.18402C20.4046 6.02238 20.4046 6.86214 20.4046 7.73658C21.2895 7.74563 22.0539 8.0436 22.6101 8.76394C23.0134 9.28623 23.1739 9.88186 23.1336 10.5407C23.0511 11.8895 22.0478 12.785 20.3793 12.948C20.3793 13.4456 20.3793 13.9492 20.3793 14.4712C19.9329 14.4712 19.5342 14.4712 19.1005 14.4712C19.1005 13.9671 19.1005 13.4741 19.1005 12.9422C18.1714 12.9239 17.3912 12.6276 16.8358 11.887C16.5052 11.4461 16.3123 10.9526 16.3355 10.363C16.7533 10.363 17.1631 10.363 17.5704 10.363C17.8083 11.2823 18.23 11.6411 19.0583 11.6132C19.0583 10.7746 19.0583 9.93463 19.0583 9.06159C18.1723 9.05029 17.4073 8.75285 16.8509 8.03262C16.4473 7.51032 16.288 6.91448 16.3282 6.25574C16.4101 4.90855 17.4158 4.0116 19.0829 3.84964C19.0829 3.352 19.0829 2.84845 19.0829 2.32648C19.5292 2.32648 19.928 2.32648 20.3618 2.32648C20.3618 2.83046 20.3618 3.32357 20.3618 3.85545C21.291 3.87247 22.0721 4.16678 22.6261 4.90941C22.9554 5.35051 23.1495 5.84394 23.1262 6.44269ZM19.0722 5.17346C18.4789 5.14428 18.0377 5.35147 17.7696 5.84695C17.5197 6.30862 17.543 6.78073 17.8563 7.20912C18.1517 7.61306 18.5556 7.79172 19.0723 7.73755C19.0722 6.87259 19.0722 6.04553 19.0722 5.17346ZM20.4 9.06321C20.4 9.93474 20.4 10.773 20.4 11.6098C21.2419 11.6509 21.8464 11.1102 21.8466 10.337C21.8467 9.5659 21.2412 9.02347 20.4 9.06321Z" fill="white"/>
</svg>
