<svg width="24" height="107" viewBox="0 0 24 107" fill="none" xmlns="http://www.w3.org/2000/svg">
<path d="M15.144 64.6481C15.144 65.3041 14.988 65.9041 14.676 66.4481C14.356 66.9841 13.904 67.3921 13.32 67.6721L12.588 66.7841C13.532 66.3041 14.004 65.5961 14.004 64.6601C14.004 64.1641 13.876 63.7681 13.62 63.4721C13.364 63.1761 13.044 63.0281 12.66 63.0281C12.188 63.0281 11.776 63.3361 11.424 63.9521C11.368 64.0641 11.224 64.3681 10.992 64.8641C10.808 65.2721 10.64 65.6041 10.488 65.8601C9.928 66.7481 9.224 67.1921 8.376 67.1921C7.696 67.1921 7.128 66.9481 6.672 66.4601C6.208 65.9721 5.976 65.3241 5.976 64.5161C5.976 63.4121 6.412 62.5441 7.284 61.9121L8.052 62.7161C7.42 63.1961 7.104 63.7921 7.104 64.5041C7.104 64.9121 7.216 65.2481 7.44 65.5121C7.656 65.7761 7.944 65.9081 8.304 65.9081C8.768 65.9081 9.148 65.6561 9.444 65.1521C9.572 64.9441 9.748 64.6001 9.972 64.1201C10.212 63.6161 10.4 63.2441 10.536 63.0041C11.056 62.1481 11.744 61.7201 12.6 61.7201C13.36 61.7201 13.972 62.0001 14.436 62.5601C14.908 63.1201 15.144 63.8161 15.144 64.6481Z" fill="#F05A28"/>
<path d="M15.144 57.3347C15.144 58.3347 14.828 59.1507 14.196 59.7827C13.564 60.4147 12.76 60.7307 11.784 60.7307C10.808 60.7307 10 60.4107 9.36 59.7707C8.728 59.1307 8.412 58.2987 8.412 57.2747C8.412 56.6427 8.564 56.0627 8.868 55.5347C9.172 54.9987 9.58 54.6067 10.092 54.3587L10.644 55.3067C10.276 55.5227 9.988 55.8067 9.78 56.1587C9.572 56.5027 9.468 56.8747 9.468 57.2747C9.468 57.9307 9.688 58.4787 10.128 58.9187C10.576 59.3507 11.128 59.5667 11.784 59.5667C12.432 59.5667 12.98 59.3547 13.428 58.9307C13.868 58.5147 14.088 57.9827 14.088 57.3347C14.088 56.9347 13.98 56.5507 13.764 56.1827C13.548 55.8067 13.272 55.5267 12.936 55.3427L13.488 54.3827C13.992 54.6547 14.392 55.0547 14.688 55.5827C14.992 56.1267 15.144 56.7107 15.144 57.3347Z" fill="#F05A28"/>
<path d="M15 51.9991V53.1511H8.568V52.0591H9.516C8.772 51.6831 8.4 51.0671 8.4 50.2111C8.4 49.9791 8.432 49.7271 8.496 49.4551L9.612 49.5631C9.54 49.7951 9.504 50.0191 9.504 50.2351C9.504 50.7631 9.684 51.1911 10.044 51.5191C10.404 51.8391 10.92 51.9991 11.592 51.9991H15Z" fill="#F05A28"/>
<path d="M15.156 45.8037C15.156 46.7877 14.832 47.5997 14.184 48.2397C13.528 48.8717 12.724 49.1877 11.772 49.1877C10.82 49.1877 10.024 48.8717 9.384 48.2397C8.728 47.6077 8.4 46.7957 8.4 45.8037C8.4 44.8277 8.728 44.0237 9.384 43.3917C10.048 42.7517 10.844 42.4317 11.772 42.4317C12.716 42.4317 13.52 42.7517 14.184 43.3917C14.832 44.0317 15.156 44.8357 15.156 45.8037ZM11.772 43.5837C11.14 43.5837 10.6 43.7997 10.152 44.2317C9.696 44.6637 9.468 45.1877 9.468 45.8037C9.468 46.4197 9.696 46.9437 10.152 47.3757C10.6 47.8077 11.14 48.0237 11.772 48.0237C12.412 48.0237 12.96 47.8077 13.416 47.3757C13.872 46.9437 14.1 46.4197 14.1 45.8037C14.1 45.1877 13.872 44.6637 13.416 44.2317C12.96 43.7997 12.412 43.5837 11.772 43.5837Z" fill="#F05A28"/>
<path d="M5.916 39.9053H15V41.0573H5.916V39.9053Z" fill="#F05A28"/>
<path d="M5.916 36.9639H15V38.1159H5.916V36.9639Z" fill="#F05A28"/>
<path d="M9.504 27.1337H5.916V25.9817H15V27.1337H14.1C14.804 27.6937 15.156 28.4377 15.156 29.3657C15.156 30.3017 14.832 31.0777 14.184 31.6937C13.528 32.3017 12.724 32.6057 11.772 32.6057C10.828 32.6057 10.036 32.3017 9.396 31.6937C8.74 31.0857 8.412 30.3177 8.412 29.3897C8.412 28.4697 8.776 27.7177 9.504 27.1337ZM11.772 27.0497C11.124 27.0497 10.58 27.2537 10.14 27.6617C9.692 28.0617 9.468 28.5897 9.468 29.2457C9.468 29.9017 9.692 30.4337 10.14 30.8417C10.588 31.2417 11.132 31.4417 11.772 31.4417C12.428 31.4417 12.98 31.2417 13.428 30.8417C13.876 30.4337 14.1 29.9017 14.1 29.2457C14.1 28.5897 13.876 28.0617 13.428 27.6617C12.988 27.2537 12.436 27.0497 11.772 27.0497Z" fill="#F05A28"/>
<path d="M15.156 21.2177C15.156 22.2017 14.832 23.0137 14.184 23.6537C13.528 24.2857 12.724 24.6017 11.772 24.6017C10.82 24.6017 10.024 24.2857 9.384 23.6537C8.728 23.0217 8.4 22.2097 8.4 21.2177C8.4 20.2417 8.728 19.4377 9.384 18.8057C10.048 18.1657 10.844 17.8457 11.772 17.8457C12.716 17.8457 13.52 18.1657 14.184 18.8057C14.832 19.4457 15.156 20.2497 15.156 21.2177ZM11.772 18.9977C11.14 18.9977 10.6 19.2137 10.152 19.6457C9.696 20.0777 9.468 20.6017 9.468 21.2177C9.468 21.8337 9.696 22.3577 10.152 22.7897C10.6 23.2217 11.14 23.4377 11.772 23.4377C12.412 23.4377 12.96 23.2217 13.416 22.7897C13.872 22.3577 14.1 21.8337 14.1 21.2177C14.1 20.6017 13.872 20.0777 13.416 19.6457C12.96 19.2137 12.412 18.9977 11.772 18.9977Z" fill="#F05A28"/>
<path d="M14.988 14.212V15.16L8.568 17.368V16.156L13.392 14.632L8.568 12.88V12.076L13.392 10.252L8.568 8.78799V7.588L14.988 9.736V10.696L10.176 12.472L14.988 14.212Z" fill="#F05A28"/>
<path d="M15 5.38187V6.53387H8.568V5.40587H9.48C8.76 4.99787 8.4 4.31787 8.4 3.36587C8.4 2.64587 8.632 2.04186 9.096 1.55386C9.56 1.06586 10.228 0.821869 11.1 0.821869H15V1.96187H11.424C10.808 1.96187 10.328 2.11387 9.984 2.41787C9.64 2.71387 9.468 3.10987 9.468 3.60587C9.468 4.12587 9.652 4.55387 10.02 4.88987C10.396 5.21787 10.868 5.38187 11.436 5.38187H15Z" fill="#F05A28"/>
<path d="M5.41772 100.418L6.48681 99.3487L11.244 104.106L11.244 83H12.756L12.756 104.106L17.5132 99.3487L18.5822 100.418L12 107L5.41772 100.418Z" fill="#F05A28"/>
</svg>
