<svg width="32" height="36" viewBox="0 0 32 36" fill="none" xmlns="http://www.w3.org/2000/svg">
<path fill-rule="evenodd" clip-rule="evenodd" d="M16.8296 0.000305176C17.3143 0.000305176 17.7991 0.000305176 18.2837 0.000305176C18.3953 0.0235735 18.508 0.0425027 18.6182 0.071034C19.2631 0.238437 19.9129 0.390326 20.5498 0.58469C20.843 0.674162 20.9464 0.961693 20.8538 1.22937C20.7619 1.49465 20.501 1.62955 20.2164 1.55153C20.0945 1.5181 19.9777 1.46639 19.857 1.42789C17.399 0.642676 15.1505 1.04064 13.1112 2.62224C13.0339 2.68216 12.9467 2.72934 12.808 2.81854C17.0894 3.80707 20.1602 8.21503 18.8505 13.0143C20.0557 13.0143 21.2531 13.0161 22.4505 13.0098C22.5191 13.0095 22.603 12.9588 22.6536 12.9064C23.2001 12.3383 23.6359 11.6959 23.9611 10.9632C23.257 10.3799 23.054 9.61427 23.1397 8.71484C22.4396 8.75482 21.8057 8.6828 21.2681 8.2588C20.7195 7.82603 20.4252 7.26205 20.4035 6.56187C20.3876 6.04822 20.5321 5.58119 20.8446 5.17252C21.4178 4.42304 22.2171 4.21639 23.0894 4.29432C23.1936 3.93209 23.0952 3.68039 22.8675 3.46562C22.5489 3.16544 22.2378 2.85732 21.9163 2.56028C21.6404 2.30525 21.5806 2.01163 21.772 1.77313C21.9655 1.53204 22.2784 1.51348 22.5667 1.75106C22.875 2.00498 23.167 2.27866 23.4775 2.55391C24.1169 1.72835 24.9415 1.36187 25.9469 1.66288C27.2195 2.04376 27.6189 3.03359 27.5615 4.30199C28.6046 4.20947 29.4618 4.49321 29.9807 5.41268C30.5045 6.3411 30.3251 7.22742 29.6895 8.03886C30.6747 9.11224 31.2329 10.3426 31.2352 11.7787C31.2451 17.8588 31.2529 23.939 31.2325 30.0192C31.2241 32.5263 29.4225 34.7202 26.9813 35.3004C26.7599 35.3529 26.5374 35.4017 26.3155 35.4523C18.722 35.4523 11.1284 35.4523 3.53477 35.4523C3.49525 35.4324 3.45776 35.4021 3.41593 35.3939C1.48827 35.0165 0.208787 33.5296 0.205832 31.5844C0.195029 24.4573 0.193551 17.3302 0.20657 10.203C0.210448 8.06388 1.80073 6.45107 3.9415 6.36169C4.19561 6.35117 4.35045 6.27388 4.50548 6.06336C6.18985 3.77716 8.46137 2.65243 11.3002 2.65483C11.4486 2.65492 11.6349 2.57422 11.7396 2.46813C12.6371 1.55716 13.6722 0.857724 14.8892 0.465394C15.5207 0.261981 16.182 0.152288 16.8296 0.000305176ZM1.25678 12.8551C1.24884 13.013 1.24053 13.1016 1.24044 13.1901C1.23989 19.2942 1.23721 25.3983 1.24192 31.5023C1.2433 33.2179 2.44882 34.4093 4.16957 34.4128C6.03888 34.4166 7.9081 34.4139 9.77741 34.4129C9.87769 34.4129 9.97787 34.4025 10.1068 34.3953C10.1068 33.3953 10.1126 32.4171 10.0983 31.4392C10.0967 31.3357 9.99255 31.2182 9.90927 31.1337C9.30226 30.5169 8.68408 29.9111 8.07975 29.2918C7.92435 29.1325 7.77292 29.0639 7.54033 29.068C6.1519 29.092 5.04028 27.9938 5.03363 26.6154C5.02699 25.248 6.11893 24.149 7.48705 24.1462C8.87918 24.1434 9.97159 25.2639 9.97353 26.6697C9.97372 26.8383 10.0624 27.0469 10.1804 27.1688C10.9586 27.973 11.7517 28.7631 12.5496 29.5479C12.9169 29.9093 13.094 30.3304 13.0891 30.8465C13.0791 31.908 13.0861 32.9696 13.0861 34.0312C13.0861 34.153 13.0861 34.2749 13.0861 34.3904C13.3381 34.3904 13.5399 34.3904 13.7693 34.3904C13.7693 34.2427 13.7693 34.118 13.7693 33.9932C13.7693 32.3546 13.7691 30.7161 13.7697 29.0776C13.7697 28.9623 13.7629 28.8451 13.781 28.7322C13.8202 28.488 13.9689 28.3399 14.2166 28.3118C14.4766 28.2824 14.6748 28.3865 14.7578 28.6395C14.7998 28.7673 14.8058 28.9111 14.806 29.0476C14.8089 30.7092 14.8079 32.3708 14.8079 34.0324C14.8079 34.1535 14.8079 34.2743 14.8079 34.3931C15.1339 34.3931 15.4055 34.3931 15.6879 34.3931C15.6965 34.3306 15.7078 34.2867 15.7078 34.2427C15.709 31.2657 15.7102 28.2887 15.7058 25.3116C15.7057 25.1899 15.6912 25.0301 15.6164 24.953C15.2193 24.5433 14.8009 24.1546 14.4293 23.7966C14.2283 23.9987 14.0353 24.1929 13.7979 24.4317C14.0322 24.6508 14.3179 24.8869 14.5622 25.1599C14.6831 25.295 14.7768 25.4928 14.7968 25.6718C14.8337 26.0024 14.8156 26.3401 14.805 26.6745C14.7941 27.0228 14.5827 27.2522 14.2907 27.2569C13.9811 27.262 13.7328 27.0246 13.7807 26.6565C13.8622 26.0277 13.6461 25.5646 13.15 25.2036C13.0947 25.1633 13.0437 25.1123 13.0034 25.0571C12.839 24.8317 12.6257 24.7782 12.3475 24.7786C11.0444 24.7808 9.9558 23.7198 9.90834 22.4312C9.85747 21.0452 10.9312 19.8905 12.2973 19.8621C13.7243 19.8325 14.8416 20.9236 14.8257 22.3504C14.8232 22.5773 14.8776 22.7369 15.0429 22.8924C15.4209 23.2481 15.769 23.6358 16.1509 23.987C16.5805 24.3819 16.7553 24.855 16.7532 25.4344C16.7427 28.2844 16.7484 31.1346 16.7484 33.9848C16.7484 34.1189 16.7484 34.2533 16.7484 34.3925C16.9929 34.3925 17.1936 34.3925 17.4269 34.3925C17.4269 34.2354 17.4269 34.099 17.4269 33.9627C17.4269 32.0935 17.4342 30.2242 17.4223 28.3549C17.419 27.8114 17.5996 27.3768 17.9884 26.9986C18.774 26.2342 19.5374 25.4471 20.3203 24.6798C20.488 24.5152 20.5623 24.3565 20.5593 24.1125C20.5421 22.7249 21.6582 21.6079 23.0255 21.6195C24.3933 21.6311 25.5058 22.7742 25.4793 24.1409C25.4528 25.5085 24.3036 26.588 22.9235 26.5625C22.7756 26.5598 22.5894 26.6348 22.4823 26.7376C21.85 27.345 21.2277 27.9635 20.6227 28.598C20.5041 28.7223 20.4169 28.9325 20.4155 29.104C20.4001 30.7538 20.4059 32.4039 20.4071 34.054C20.4072 34.165 20.4197 34.276 20.4281 34.4137C20.5659 34.4137 20.6791 34.4137 20.7922 34.4137C22.3845 34.4137 23.9769 34.4157 25.5692 34.4132C28.2327 34.4089 30.198 32.4461 30.2019 29.7753C30.2073 26.083 30.207 22.3905 30.2021 18.698C30.1987 16.0027 28.2401 14.0544 25.5449 14.0542C18.4947 14.0537 11.4444 14.0472 4.39422 14.0606C3.20615 14.0629 2.16914 13.7438 1.25678 12.8551ZM12.8433 10.0186C12.9744 10.025 13.0431 10.0327 13.1115 10.0311C13.7603 10.0156 14.2542 10.285 14.5568 10.8581C14.8613 11.4349 14.7783 11.9928 14.4103 12.5186C14.3073 12.6657 14.2087 12.8158 14.0741 13.0148C15.2901 13.0148 16.4396 13.0195 17.5889 13.0039C17.6638 13.0029 17.7727 12.8572 17.8045 12.759C18.1161 11.7996 18.1926 10.81 18.0491 9.81925C17.468 5.80372 13.9024 3.17634 9.91185 3.8019C5.79567 4.44714 3.10634 8.75011 4.32709 12.7247C4.39791 12.9553 4.49819 13.0231 4.73585 13.0214C6.36205 13.01 7.98834 13.0157 9.61463 13.0146C9.71444 13.0146 9.81416 13.0024 9.91767 12.9957C9.91767 12.6468 9.91767 12.3213 9.91767 11.9793C9.62331 11.9793 9.35849 11.9735 9.09404 11.9804C8.4213 11.9978 7.89868 11.735 7.58991 11.1309C7.2793 10.5231 7.39315 9.95018 7.80025 9.41796C8.71076 8.2274 9.61583 7.0325 10.5261 5.84176C10.9336 5.30871 11.4257 5.12986 11.9713 5.30437C12.536 5.48498 12.8365 5.92329 12.8411 6.60749C12.8479 7.61089 12.843 8.61438 12.8431 9.61787C12.8433 9.74197 12.8433 9.86643 12.8433 10.0186ZM29.2329 6.51626C29.2382 5.87767 28.7618 5.36309 28.1236 5.3341C27.8013 5.31942 27.4779 5.33272 27.155 5.32875C26.7038 5.32311 26.524 5.14675 26.5182 4.70336C26.5142 4.39201 26.5264 4.08029 26.5141 3.7694C26.4868 3.08456 25.9696 2.59158 25.3077 2.60728C24.6585 2.6227 24.1794 3.11881 24.167 3.79525C24.1612 4.11796 24.1737 4.44123 24.1629 4.76375C24.1508 5.12265 23.9572 5.31564 23.5994 5.32681C23.2768 5.33687 22.9536 5.32441 22.6309 5.33078C21.9426 5.34435 21.4391 5.84453 21.4405 6.50638C21.442 7.16546 21.9469 7.66343 22.6375 7.67931C22.9487 7.68651 23.2603 7.6758 23.5714 7.68254C23.9712 7.69122 24.1551 7.87801 24.1641 8.284C24.1707 8.58372 24.1626 8.88372 24.1665 9.18353C24.1758 9.88472 24.6538 10.3885 25.3149 10.398C25.9914 10.4077 26.4979 9.90337 26.5155 9.19442C26.5233 8.88326 26.5123 8.57163 26.519 8.26037C26.5273 7.87469 26.7091 7.69131 27.094 7.68263C27.4284 7.67506 27.7634 7.69159 28.0971 7.67681C28.745 7.64828 29.2279 7.14746 29.2329 6.51626ZM27.5532 8.76248C27.5532 8.93459 27.5602 9.11603 27.552 9.29673C27.5006 10.4318 26.619 11.4116 25.5334 11.4085C25.0044 11.4071 24.7628 11.5909 24.5704 12.0359C24.4249 12.3726 24.1873 12.6692 23.976 13.0072C25.158 13.0518 26.305 12.9042 27.4149 13.2861C28.5222 13.6671 29.423 14.327 30.1615 15.2636C30.1834 15.195 30.201 15.1656 30.201 15.1364C30.1992 13.9381 30.2317 12.7384 30.1825 11.5421C30.1383 10.4682 29.6793 9.544 28.9349 8.76821C28.8715 8.70219 28.7628 8.63451 28.68 8.64023C28.3163 8.66488 27.9545 8.71622 27.5532 8.76248ZM10.9855 13.015C11.5777 13.015 12.1174 13.0197 12.657 13.0097C12.7336 13.0083 12.8349 12.9542 12.8803 12.8921C13.1319 12.5481 13.3841 12.2031 13.6083 11.8412C13.8377 11.4707 13.6128 11.0903 13.1702 11.0723C12.9745 11.0644 12.7782 11.0709 12.5823 11.0704C11.9583 11.0686 11.8056 10.9182 11.805 10.2951C11.8035 9.07328 11.8078 7.85132 11.7982 6.62955C11.7974 6.52088 11.7129 6.41284 11.6673 6.30444C11.5634 6.35791 11.4254 6.38496 11.3608 6.46871C10.4387 7.66379 9.51961 8.86156 8.62148 10.0746C8.5176 10.2148 8.45943 10.4966 8.53182 10.631C8.61344 10.7825 8.85998 10.9071 9.04714 10.927C9.45747 10.9705 9.87566 10.9389 10.2906 10.9411C10.8044 10.9438 10.979 11.1128 10.9844 11.6213C10.9893 12.0699 10.9855 12.5187 10.9855 13.015ZM18.4652 34.3952C18.7884 34.3952 19.0594 34.3952 19.3676 34.3952C19.3676 34.2531 19.3676 34.1291 19.3676 34.0051C19.3676 32.3341 19.3807 30.6631 19.3589 28.9925C19.3531 28.5543 19.4714 28.2325 19.7961 27.9318C20.4169 27.3571 21.001 26.7429 21.5488 26.1965C21.3352 25.9506 21.149 25.7361 20.953 25.5103C20.2071 26.2565 19.4795 26.9948 18.7383 27.7193C18.5409 27.9122 18.4598 28.1176 18.4612 28.391C18.4691 30.0735 18.4651 31.7558 18.4651 33.4382C18.4652 33.7482 18.4652 34.0581 18.4652 34.3952ZM3.7066 7.4313C2.27847 7.57091 1.22234 8.81151 1.24238 10.2597C1.25937 11.4909 2.26046 12.7739 3.28057 12.8379C2.81576 10.9988 2.94364 9.20541 3.7066 7.4313ZM12.0461 34.3993C12.0461 33.1491 12.0542 31.9387 12.0357 30.7286C12.0334 30.5791 11.9182 30.4044 11.8066 30.2881C11.2955 29.7553 10.7616 29.2445 10.2473 28.7147C10.0178 28.4782 9.81545 28.2153 9.63494 28.0044C9.34879 28.2748 9.14871 28.4638 8.93227 28.6682C8.99672 28.737 9.07216 28.8219 9.15212 28.9021C9.71435 29.4657 10.2715 30.0346 10.8433 30.5884C11.0577 30.796 11.1572 31.0196 11.1511 31.3213C11.136 32.0594 11.1462 32.798 11.1462 33.5364C11.1462 33.8207 11.1462 34.1052 11.1462 34.3993C11.4618 34.3993 11.734 34.3993 12.0461 34.3993ZM13.7931 22.3352C13.7997 21.5359 13.1822 20.9055 12.3872 20.8999C11.5905 20.8944 10.9522 21.5161 10.9449 22.3044C10.9377 23.0886 11.574 23.7394 12.3562 23.7478C13.1436 23.7562 13.7867 23.1241 13.7931 22.3352ZM21.5913 24.0801C21.5868 24.8734 22.2134 25.5115 23.0021 25.517C23.785 25.5225 24.4356 24.8817 24.4411 24.0997C24.4465 23.3214 23.8007 22.6657 23.0218 22.6582C22.2422 22.6507 21.5957 23.2934 21.5913 24.0801ZM7.49906 25.1852C6.70212 25.1822 6.07415 25.8057 6.0723 26.6015C6.07055 27.3906 6.70618 28.0344 7.48955 28.0366C8.2658 28.0389 8.92166 27.3879 8.92563 26.611C8.92969 25.8287 8.28861 25.188 7.49906 25.1852Z" fill="white"/>
</svg>
